# xmcd CD database file
#
# Track frame offsets:
#	150
#	15617
#	32612
#	48400
#	60205
#	87740
#	101937
#	117525
#	134700
#	148970
#
# Disc length: 2202 seconds
#
# Revision: 3
# Processed by: cddbd v1.5.2PL0 Copyright (c) Steve Scherf et al.
# Submitted via: CDex 1.51
#
DISCID=9508980a
DTITLE=Ronnie Barron - Reverend Ether
DYEAR=1971
DGENRE=Rock
TTITLE0=Ol' Chatanooga
TTITLE1=Duke Of Crenshaw
TTITLE2=Don't Let My Husband Catch You
TTITLE3=Sweet Simplicity
TTITLE4=Freeway Mama
TTITLE5=Louisiana Flood
TTITLE6=Mamma's Kind Of Song
TTITLE7=Happy, Happy, Happy
TTITLE8=Let It Shine
TTITLE9=Eighteen Sixty Two b.p.
EXTD=YEAR: 1971
EXTT0=
EXTT1=
EXTT2=
EXTT3=
EXTT4=
EXTT5=
EXTT6=
EXTT7=
EXTT8=
EXTT9=
PLAYORDER=
